<?xml version="1.0" encoding="utf-8"?><svg version="1.1" id="Layer_1" xmlns="http://www.w3.org/2000/svg" xmlns:xlink="http://www.w3.org/1999/xlink" x="0px" y="0px" viewBox="0 0 122.88 95.7" style="enable-background:new 0 0 122.88 95.7" xml:space="preserve"><g><path d="M29.13,94.98c0.69-5.06,3.28-9.53,7.04-12.72c3.7-3.14,8.54-5.04,13.83-5.04c5.29,0,10.14,1.91,13.84,5.05 c3.77,3.2,6.35,7.68,7.03,12.74l-5.15,0.69c-0.5-3.75-2.43-7.08-5.24-9.47c-2.79-2.37-6.46-3.81-10.48-3.81 c-4.02,0-7.68,1.43-10.47,3.8c-2.81,2.38-4.74,5.7-5.25,9.45L29.13,94.98L29.13,94.98z M7.86,79.89c-0.19-0.09-0.37-0.21-0.54-0.35 c-1.28-1.07-2.41-2.29-3.36-3.61C1.41,72.41,0.03,68.11,0,63.83c-0.03-4.33,1.32-8.64,4.22-12.12c0.94-1.13,2.05-2.17,3.32-3.09 c1.48-1.07,3.17-1.98,5.07-2.72c1.32-0.51,2.72-0.94,4.21-1.28c1.68-6.68,5.27-11.83,9.88-15.41c4.31-3.34,9.5-5.29,14.85-5.81 c5.32-0.51,10.8,0.39,15.71,2.75c1.55,0.74,3.04,1.63,4.45,2.66c1.7-2.07,3.79-3.82,6.17-5.12c2.98-1.63,6.38-2.55,9.99-2.55 c5.76,0,10.97,2.33,14.75,6.11c3.77,3.77,6.11,8.99,6.11,14.75c0,2.54-0.46,4.97-1.29,7.23c-0.87,2.34-2.14,4.49-3.74,6.34 c-0.08,0.09-0.16,0.17-0.25,0.25c0.37,1.87,0.55,3.8,0.53,5.72c-0.05,4.82-1.36,9.63-4.01,13.16c-0.21,0.28-0.47,0.52-0.75,0.69 c3.2,5.96,5,12.74,5,19.92h-5.13c0-10.53-4.41-20.06-11.54-26.96c-7.15-6.92-17.03-11.2-27.96-11.2c-10.93,0-20.82,4.28-27.96,11.2 c-7.13,6.9-11.54,16.43-11.54,26.96H4.93C4.93,89.89,5.97,84.69,7.86,79.89L7.86,79.89z M65.9,32.58c1.71,1.88,3.21,4.04,4.45,6.49 c1.22-0.19,2.45-0.29,3.66-0.28c5.14,0.03,10.09,1.87,14,6.08c0.82,0.88,1.59,1.87,2.31,2.98c0.31,0.48,0.61,0.98,0.88,1.5 c0.36-0.66,0.68-1.34,0.94-2.06c0.61-1.64,0.94-3.43,0.94-5.3c0-4.2-1.7-8.01-4.46-10.76c-2.75-2.75-6.56-4.46-10.76-4.46 c-2.66,0-5.15,0.67-7.3,1.85C68.76,29.62,67.18,30.97,65.9,32.58L65.9,32.58z M86.08,70.44c1.5-2.46,2.24-5.66,2.28-8.93 c0.04-3.88-0.9-7.77-2.74-10.6c-0.53-0.81-1.1-1.55-1.72-2.21c-2.76-2.97-6.27-4.27-9.9-4.3c-2.64-0.02-5.37,0.62-7.96,1.76 c-0.58,0.28-1.15,0.59-1.72,0.93c-1.72,1.01-3.42,2.24-5.15,3.66l-3.7-4.24c1.28-1.19,2.66-2.27,4.13-3.22 c1.17-0.76,2.39-1.44,3.65-2.02c0.5-0.25,1.02-0.49,1.53-0.71c-2.44-4.32-5.95-7.42-9.93-9.33c-3.98-1.91-8.43-2.64-12.76-2.22 c-4.31,0.42-8.49,1.98-11.95,4.66c-4,3.1-7.04,7.73-8.2,13.87l-0.36,1.92l-1.91,0.34c-1.87,0.33-3.55,0.78-5.02,1.35 c-1.42,0.55-2.69,1.23-3.8,2.03c-0.89,0.64-1.65,1.36-2.3,2.14c-2.01,2.41-2.95,5.43-2.92,8.49c0.02,3.1,1.03,6.24,2.9,8.82 c0.54,0.74,1.14,1.43,1.82,2.07c2.07-3.69,4.67-7.05,7.71-9.99c8.08-7.82,19.23-12.66,31.53-12.66c12.3,0,23.45,4.84,31.53,12.66 C82.92,66.47,84.59,68.39,86.08,70.44L86.08,70.44z M51.38,14.53c-0.99-0.97-1-2.56-0.03-3.55c0.97-0.99,2.56-1,3.55-0.03 l6.91,6.82c0.99,0.97,1,2.56,0.03,3.55c-0.97,0.99-2.56,1-3.55,0.03L51.38,14.53L51.38,14.53z M78.54,2.52 c-0.01-1.38,1.11-2.51,2.5-2.52c1.38-0.01,2.51,1.11,2.51,2.5l0.06,9.71c0.01,1.38-1.11,2.51-2.5,2.52 c-1.38,0.01-2.51-1.11-2.52-2.5L78.54,2.52L78.54,2.52z M106.52,12.04c0.99-0.97,2.58-0.96,3.55,0.03 c0.97,0.99,0.96,2.58-0.03,3.55l-6.91,6.82c-0.99,0.97-2.58,0.96-3.55-0.03c-0.97-0.99-0.96-2.58,0.03-3.55L106.52,12.04 L106.52,12.04z M120.36,38.66c1.38-0.01,2.51,1.11,2.51,2.5c0.01,1.38-1.11,2.51-2.5,2.52l-9.71,0.06 c-1.38,0.01-2.51-1.11-2.51-2.5c-0.01-1.38,1.11-2.51,2.5-2.51L120.36,38.66L120.36,38.66z M102.15,57.45 c-0.79-0.78-0.8-2.05-0.02-2.84c0.78-0.79,2.05-0.8,2.84-0.02l6.91,6.82c0.79,0.78,0.8,2.05,0.02,2.84 c-0.78,0.79-2.05,0.8-2.84,0.02L102.15,57.45L102.15,57.45z M17.5,95.2c0.4-8.36,4.17-15.86,10.02-21.26 c5.8-5.36,13.65-8.64,22.28-8.64c8.63,0,16.48,3.29,22.28,8.64c5.85,5.4,9.62,12.9,10.02,21.26l-5.19,0.24 c-0.34-6.94-3.47-13.17-8.35-17.67c-4.87-4.5-11.48-7.26-18.75-7.26c-7.28,0-13.88,2.76-18.76,7.26 c-4.87,4.5-8.01,10.74-8.35,17.68L17.5,95.2L17.5,95.2z"/></g></svg>