<?xml version="1.0" encoding="utf-8"?><svg version="1.1" id="Layer_1" xmlns="http://www.w3.org/2000/svg" xmlns:xlink="http://www.w3.org/1999/xlink" x="0px" y="0px" viewBox="0 0 122.88 103.08" style="enable-background:new 0 0 122.88 103.08" xml:space="preserve"><g><path d="M101.8,57.81c-0.99-0.97-1-2.56-0.03-3.55c0.97-0.99,2.56-1,3.55-0.03l6.91,6.82c0.99,0.97,1,2.56,0.03,3.55 c-0.97,0.99-2.56,1-3.55,0.03L101.8,57.81L101.8,57.81z M24.67,78.36c-1.14,0-2.06-1.26-2.06-2.82c0-1.56,0.92-2.82,2.06-2.82h50.9 c1.13,0,2.06,1.26,2.06,2.82c0,1.56-0.92,2.82-2.06,2.82H24.67L24.67,78.36z M15.59,90.21c-1.4,0-2.54-1.26-2.54-2.82 c0-1.56,1.14-2.82,2.54-2.82h40.16c1.4,0,2.54,1.26,2.54,2.82c0,1.56-1.14,2.82-2.54,2.82H15.59L15.59,90.21z M68.37,90.21 c-1.4,0-2.54-1.26-2.54-2.82c0-1.56,1.14-2.82,2.54-2.82h9.04c1.4,0,2.54,1.26,2.54,2.82c0,1.56-1.14,2.82-2.54,2.82H68.37 L68.37,90.21z M83.56,97.47c1.39,0.01,2.52,1.27,2.52,2.82c-0.01,1.55-1.14,2.8-2.54,2.8l-35.92-0.2 c-1.39-0.01-2.52-1.27-2.52-2.82c0.01-1.55,1.14-2.8,2.54-2.8L83.56,97.47L83.56,97.47z M36,97.25c1.4,0,2.54,1.26,2.54,2.82 s-1.14,2.82-2.54,2.82h-7.15c-1.4,0-2.54-1.26-2.54-2.82s1.14-2.82,2.54-2.82H36L36,97.25z M10.93,75.23 c1.19,1,1.35,2.77,0.35,3.96c-1,1.19-2.77,1.35-3.96,0.35c-1.28-1.07-2.41-2.29-3.36-3.61C1.41,72.41,0.03,68.11,0,63.83 c-0.03-4.33,1.32-8.64,4.22-12.12c0.94-1.13,2.05-2.17,3.32-3.09c1.48-1.07,3.17-1.98,5.07-2.72c1.32-0.51,2.72-0.94,4.21-1.28 c1.68-6.68,5.27-11.83,9.88-15.41c4.31-3.34,9.5-5.29,14.85-5.81c5.32-0.51,10.8,0.39,15.71,2.75c1.55,0.74,3.04,1.63,4.45,2.66 c1.7-2.08,3.79-3.82,6.17-5.12c2.98-1.63,6.38-2.55,9.99-2.55c5.76,0,10.97,2.33,14.75,6.11c3.77,3.77,6.11,8.99,6.11,14.75 c0,2.54-0.46,4.97-1.29,7.23c-0.87,2.34-2.14,4.49-3.74,6.34c-0.08,0.09-0.16,0.18-0.25,0.25c0.37,1.87,0.55,3.8,0.53,5.72 c-0.05,4.82-1.36,9.63-4.01,13.16c-0.93,1.24-2.69,1.49-3.93,0.56c-1.24-0.93-1.49-2.69-0.56-3.93c1.91-2.54,2.85-6.15,2.89-9.84 c0.04-3.87-0.9-7.77-2.74-10.6c-0.53-0.81-1.11-1.55-1.72-2.21c-2.76-2.97-6.27-4.27-9.9-4.3c-2.64-0.02-5.37,0.62-7.97,1.77 c-0.58,0.28-1.15,0.59-1.72,0.92c-1.72,1.01-3.42,2.24-5.15,3.66l-3.7-4.24c1.28-1.19,2.67-2.27,4.13-3.22 c1.17-0.76,2.38-1.44,3.63-2.02c0.51-0.25,1.02-0.49,1.54-0.72c-2.44-4.32-5.95-7.42-9.93-9.33c-3.98-1.91-8.43-2.64-12.76-2.22 c-4.31,0.42-8.49,1.98-11.95,4.66c-4,3.1-7.04,7.74-8.2,13.87l-0.36,1.92l-1.91,0.34c-1.87,0.33-3.55,0.78-5.02,1.35 c-1.42,0.55-2.69,1.23-3.8,2.03c-0.89,0.64-1.65,1.36-2.3,2.14c-2.01,2.41-2.94,5.43-2.92,8.49c0.02,3.1,1.03,6.24,2.9,8.82 C9.21,73.58,10.02,74.46,10.93,75.23L10.93,75.23z M65.9,32.58c1.71,1.88,3.21,4.04,4.45,6.49c1.22-0.19,2.45-0.29,3.66-0.28 c5.13,0.03,10.09,1.87,14,6.08c0.82,0.88,1.59,1.87,2.31,2.98c0.31,0.48,0.61,0.98,0.88,1.5c0.36-0.66,0.68-1.35,0.94-2.06 c0.61-1.64,0.94-3.43,0.94-5.3c0-4.2-1.7-8.01-4.46-10.76c-2.75-2.75-6.56-4.46-10.76-4.46c-2.66,0-5.14,0.67-7.3,1.85 C68.76,29.62,67.17,30.97,65.9,32.58L65.9,32.58z M51.37,14.53c-0.99-0.97-1-2.56-0.03-3.55c0.97-0.99,2.56-1,3.55-0.03l6.91,6.82 c0.99,0.97,1,2.56,0.03,3.55c-0.97,0.99-2.56,1-3.55,0.03L51.37,14.53L51.37,14.53z M78.54,2.51c-0.01-1.38,1.11-2.51,2.5-2.51 c1.38-0.01,2.51,1.11,2.51,2.5l0.06,9.71c0.01,1.38-1.11,2.51-2.5,2.51c-1.38,0.01-2.51-1.11-2.51-2.5L78.54,2.51L78.54,2.51z M106.52,12.04c0.99-0.97,2.58-0.96,3.55,0.03c0.97,0.99,0.96,2.58-0.03,3.55l-6.91,6.82c-0.99,0.97-2.58,0.96-3.55-0.03 c-0.97-0.99-0.96-2.58,0.03-3.55L106.52,12.04L106.52,12.04z M120.36,38.66c1.38-0.01,2.51,1.11,2.51,2.5 c0.01,1.38-1.11,2.51-2.5,2.51l-9.71,0.06c-1.38,0.01-2.51-1.11-2.51-2.5c-0.01-1.38,1.11-2.51,2.5-2.51L120.36,38.66L120.36,38.66 z"/></g></svg>